<svg xmlns="http://www.w3.org/2000/svg" viewBox="0 0 200 200"><defs><style>.cls-1{isolation:isolate;}.cls-2{fill:#eabd8d;}.cls-3{fill:#c9905c;}.cls-4{fill:#532100;opacity:0.2;mix-blend-mode:multiply;}.cls-5{fill:#935a49;}.cls-6{fill:#ffcd9c;}.cls-7{fill:#f4ca9e;}.cls-8{fill:#c7e3e5;}.cls-9{fill:#878787;}.cls-10{fill:#00a9ce;}.cls-11{fill:#c4925c;}.cls-12{fill:#a5714e;}</style></defs><title>Artboard 33 copy 5</title><g class="cls-1"><g id="Layer_1" data-name="Layer 1"><polygon class="cls-2" points="165.91 85.99 193.14 88.68 127.63 50.86 100.4 48.17 165.91 85.99"/><polygon class="cls-3" points="33.63 86.94 100.6 125.48 100.4 48.15 33.63 86.94"/><polygon class="cls-4" points="100.38 49.23 75.55 126.61 100.38 124.64 100.38 49.23"/><polygon class="cls-5" points="165.89 85.97 100.38 48.15 100.38 124.64 99.14 124.76 165.89 85.97"/><path class="cls-6" d="M192.76,89.17h0l-26.86-2.73a.47.47,0,1,1,.1-.93l26.86,2.73a.47.47,0,0,1,0,.93Z"/><path class="cls-7" d="M99.14,125.23a.47.47,0,0,1-.23-.06L33.44,87.35a.47.47,0,0,1,0-.81L100,47.86a.47.47,0,1,1,.47.81L34.61,86.95l64.77,37.41a.47.47,0,0,1-.23.87Z"/><path class="cls-3" d="M99.14,125.23a.47.47,0,0,1-.24-.87l65.84-38.6L100.58,48.85a.47.47,0,0,1,.47-.81l64.86,37.31a.47.47,0,0,1,0,.81l-66.54,39A.47.47,0,0,1,99.14,125.23Z"/><polygon class="cls-2" points="34.09 85.75 6.86 88.44 72.37 50.62 99.6 47.93 34.09 85.75"/><path class="cls-6" d="M7.24,88.93h0l26.86-2.73a.47.47,0,1,0-.1-.93L7.2,88a.47.47,0,0,0,0,.93Z"/><rect class="cls-8" x="50.79" width="92.63" height="128.94"/><rect class="cls-9" x="74.79" y="12.67" width="52.8" height="3.69"/><rect class="cls-9" x="74.79" y="19.13" width="60.28" height="6.66"/><rect class="cls-9" x="58.99" y="36.71" width="50.94" height="3.44"/><rect class="cls-9" x="58.99" y="42.21" width="63.32" height="3.44"/><rect class="cls-9" x="58.99" y="47.72" width="76.62" height="3.44"/><rect class="cls-9" x="58.99" y="53.23" width="68.59" height="3.44"/><rect class="cls-9" x="58.99" y="63.94" width="20.35" height="5.37"/><rect class="cls-9" x="58.99" y="79.27" width="76.99" height="2.69"/><rect class="cls-9" x="58.99" y="84.63" width="76.99" height="2.69"/><rect class="cls-9" x="58.99" y="90.25" width="76.99" height="2.69"/><rect class="cls-9" x="58.99" y="106.45" width="76.99" height="2.69"/><rect class="cls-9" x="84.46" y="63.94" width="25.47" height="5.37"/><rect class="cls-9" x="115.63" y="63.94" width="20.35" height="5.37"/><circle class="cls-10" cx="64.08" cy="18.88" r="5.09"/><path class="cls-11" d="M122.9,156.08a.45.45,0,0,1-.34-.16l-.39-.45a.45.45,0,0,1,.68-.59l.15.17,64-37.18a.45.45,0,1,1,.45.78L123.13,156A.45.45,0,0,1,122.9,156.08Z"/><path class="cls-12" d="M122.51,155.63a.45.45,0,0,1-.34-.16L96.32,125.69a.45.45,0,1,1,.68-.59l25.85,29.79a.45.45,0,0,1-.34.75Z"/><path class="cls-11" d="M72.24,155.87a.45.45,0,0,1-.23-.06L8.91,119.37a.45.45,0,1,1,.45-.78l62.77,36.24,24.17-29.72a.45.45,0,1,1,.7.57l-24.41,30A.45.45,0,0,1,72.24,155.87Z"/><polygon class="cls-3" points="98.43 124.72 165.18 85.93 164.97 161.21 98.22 200 98.43 124.72"/><polygon class="cls-12" points="98.43 124.72 98.22 200 32.7 162.18 32.92 86.9 98.43 124.72"/><polygon class="cls-2" points="125.67 156.16 192.42 117.36 164.97 85.75 98.22 124.55 125.67 156.16"/><polygon class="cls-2" points="73.09 155.93 98.47 124.77 32.96 86.95 7.58 118.11 73.09 155.93"/></g></g></svg>