<svg id="Layer_1" data-name="Layer 1" xmlns="http://www.w3.org/2000/svg" xmlns:xlink="http://www.w3.org/1999/xlink" viewBox="0 0 135 89"><defs><style>.cls-1{fill:#ccc;}.cls-1,.cls-10,.cls-11,.cls-12,.cls-13,.cls-14,.cls-15,.cls-16,.cls-17,.cls-18,.cls-19,.cls-20,.cls-21,.cls-22,.cls-23,.cls-24,.cls-25,.cls-26,.cls-27,.cls-28,.cls-29,.cls-3,.cls-30,.cls-31,.cls-4,.cls-5,.cls-6,.cls-7,.cls-9{fill-rule:evenodd;}.cls-2{fill:url(#linear-gradient);}.cls-3{fill:url(#linear-gradient-2);}.cls-4{fill:#fda972;}.cls-5{fill:#ffd9b5;}.cls-6{fill:url(#linear-gradient-3);}.cls-7{fill:#353535;}.cls-8{fill:url(#linear-gradient-4);}.cls-9{fill:url(#linear-gradient-5);}.cls-10{fill:#f3cdaa;}.cls-11{fill:#fff6ed;}.cls-12{fill:url(#linear-gradient-6);}.cls-13{fill:#e1e1e1;}.cls-14{fill:url(#linear-gradient-7);}.cls-15{fill:url(#linear-gradient-8);}.cls-16{fill:#9e6c42;}.cls-17{fill:#e3e3e3;}.cls-18{fill:#c3c2c2;}.cls-19{fill:#c00;}.cls-20{fill:#900;}.cls-21{fill:#fc0;}.cls-22{fill:#e4b600;}.cls-23{fill:#bd9700;}.cls-24{fill:#876c00;}.cls-25{fill:#969696;}.cls-26{fill:#737373;}.cls-27{fill:#ea0000;}.cls-28{fill:#ff1010;}.cls-29{fill:#a30000;}.cls-30{fill:#5d5d5d;}.cls-31{fill:#858585;}</style><linearGradient id="linear-gradient" x1="395.22" y1="-496.22" x2="423.22" y2="-496.22" gradientTransform="translate(-403.08 177.36) scale(1.26 0.28)" gradientUnits="userSpaceOnUse"><stop offset="0" stop-color="#ffa061"/><stop offset="0.46" stop-color="#f60"/><stop offset="0.89" stop-color="#dc5800"/><stop offset="1" stop-color="#f60"/></linearGradient><linearGradient id="linear-gradient-2" x1="506.86" y1="782.17" x2="522.95" y2="766.08" gradientTransform="matrix(1.09, 0.63, -1.09, 0.63, 392.42, -765.65)" xlink:href="#linear-gradient"/><linearGradient id="linear-gradient-3" x1="-57.25" y1="977.66" x2="-41.16" y2="961.57" gradientTransform="matrix(0.61, 0.35, -0.61, 0.35, 728.53, -288.03)" gradientUnits="userSpaceOnUse"><stop offset="0" stop-color="#91633e"/><stop offset="0.26" stop-color="#b68156"/><stop offset="0.79" stop-color="#dfaf80"/></linearGradient><linearGradient id="linear-gradient-4" x1="426.14" y1="-592.14" x2="454.14" y2="-592.14" gradientTransform="translate(-488.98 237.46) scale(1.26 0.28)" gradientUnits="userSpaceOnUse"><stop offset="0" stop-color="#f9ebde"/><stop offset="0.46" stop-color="#a9917b"/><stop offset="0.89" stop-color="#a9917b"/><stop offset="1" stop-color="#fdddbf"/></linearGradient><linearGradient id="linear-gradient-5" x1="503.07" y1="742.67" x2="519.16" y2="726.59" gradientTransform="matrix(1.09, 0.63, -1.09, 0.63, 306.53, -705.55)" xlink:href="#linear-gradient-4"/><linearGradient id="linear-gradient-6" x1="-64.33" y1="906.59" x2="-48.24" y2="890.5" gradientTransform="matrix(0.61, 0.35, -0.61, 0.35, 642.63, -227.93)" xlink:href="#linear-gradient-3"/><linearGradient id="linear-gradient-7" x1="-1182.94" y1="-835.99" x2="-1095.57" y2="-835.99" gradientTransform="translate(424.79 314.29) scale(0.35)" xlink:href="#linear-gradient-4"/><linearGradient id="linear-gradient-8" x1="-1107.79" y1="-859.65" x2="-1170.06" y2="-859.65" gradientTransform="translate(424.79 314.29) scale(0.35)" xlink:href="#linear-gradient-3"/></defs><title>extrapacking</title><path class="cls-1" d="M127.87,51.2a29.14,29.14,0,0,1-14.78,3.49A29.13,29.13,0,0,1,98.31,51.2q-6.13-3.51-6.13-8.49t6.13-8.45a29.42,29.42,0,0,1,14.78-3.53,29.42,29.42,0,0,1,14.78,3.53Q134,37.77,134,42.71T127.87,51.2Z"/><rect class="cls-2" x="93.13" y="31.89" width="34.95" height="9.98"/><path class="cls-3" d="M123,50a24.24,24.24,0,0,1-12.37,2.94A24.23,24.23,0,0,1,98.26,50q-5.12-3-5.13-7.15t5.13-7.12a24.47,24.47,0,0,1,12.37-3,24.47,24.47,0,0,1,12.36,3q5.13,3,5.12,7.12T123,50Z"/><path class="cls-4" d="M123,38.77a24.24,24.24,0,0,1-12.37,2.94,24.24,24.24,0,0,1-12.36-2.94q-5.12-3-5.13-7.15t5.13-7.12a24.47,24.47,0,0,1,12.37-3,24.47,24.47,0,0,1,12.36,3q5.13,3,5.12,7.12T123,38.77Z"/><path class="cls-5" d="M118.4,36.3a17.41,17.41,0,0,1-15.57,0q-3.23-1.85-3.23-4.47t3.23-4.45a17.23,17.23,0,0,1,15.57,0q3.23,1.85,3.23,4.45T118.4,36.3Z"/><path class="cls-6" d="M117.51,35.78a15.43,15.43,0,0,1-13.8,0q-2.86-1.64-2.86-4t2.86-3.94a15.26,15.26,0,0,1,13.8,0q2.86,1.64,2.86,3.94T117.51,35.78Z"/><path class="cls-7" d="M99,43.17a3.2,3.2,0,0,0-.44-.55,2.45,2.45,0,0,0-.52-.44q0,1.51.05,2.47a1.78,1.78,0,0,0,.52.22,1,1,0,0,0,.44.05.51.51,0,0,0,.27-.19.65.65,0,0,0,.11-.41,1.22,1.22,0,0,0-.14-.55Q99.12,43.47,99,43.17Zm-1-3a12.55,12.55,0,0,1,1.21.88,6.75,6.75,0,0,1,1,1.15,5.16,5.16,0,0,1,.69,1.43,4.7,4.7,0,0,1,.27,1.53,1.58,1.58,0,0,1-.22,1,1.14,1.14,0,0,1-.69.47q.9,1.62,1.86,3.23a23,23,0,0,1-2.14-1q-.68-1.21-1.32-2.41l-.52-.3q0,.85.08,1.64-.88-.58-1.67-1.21Q96.32,44,96.35,39,97.12,39.64,98,40.19Zm7.21,2.58q.88.16,1.73.27a70,70,0,0,0,2.77,8.85q-.93-.08-1.84-.25l-.36-.93q-1.21-.22-2.47-.58-.14.41-.27.77-1-.3-1.95-.69A48.29,48.29,0,0,0,105.18,42.76Zm.93,4.08q-.27.9-.58,1.7a11.37,11.37,0,0,0,1.29.25Q106.46,47.86,106.11,46.85Zm10.5-.05q0,2.06.11,4.25-.93.3-1.81.49a.52.52,0,0,0,0-.16,5.5,5.5,0,0,1-.58.25,4.64,4.64,0,0,1-.63.16,3.72,3.72,0,0,1-1.43-.11,2.82,2.82,0,0,1-1.23-.82,4.87,4.87,0,0,1-.88-1.37,3.69,3.69,0,0,1-.33-1.45,5.23,5.23,0,0,1,.22-1.75,5.45,5.45,0,0,1,.77-1.75,2.77,2.77,0,0,1,1.18-1,3.75,3.75,0,0,1,1.43-.38,6.28,6.28,0,0,1,1.54.08,2.81,2.81,0,0,1,1.34.74q-.66,1-1.29,1.95a1.76,1.76,0,0,0-.74-.49,1.49,1.49,0,0,0-.79-.11,1.35,1.35,0,0,0-.79.3,2.25,2.25,0,0,0-.66.66,2.64,2.64,0,0,0-.41,1,2.52,2.52,0,0,0-.11.85,1.93,1.93,0,0,0,.16.77,2.68,2.68,0,0,0,.47.69,2.5,2.5,0,0,0,.63.41,1.54,1.54,0,0,0,.71.11,1.61,1.61,0,0,0,.71-.19,2.91,2.91,0,0,0,.66-.47,3.34,3.34,0,0,0,0-.41q-.79.16-1.54.27-.05-.93-.08-1.78A27.88,27.88,0,0,0,116.6,46.79Zm9.07-2.17q0,1,0,1.7a28.28,28.28,0,0,1-4.33,2.8q0-3.34,0-8.09a18.39,18.39,0,0,0,1.78-.93q0,3.76,0,6.36A22.79,22.79,0,0,0,125.68,44.63Zm-7.76-2.36a18.48,18.48,0,0,0,1.86-.6q0,4.82.05,8.2-.9.41-1.81.74Q117.95,47.2,117.92,42.27Zm10-2.93.08-.11V41l-.08.1q0,.66,0,1.4l.08-.1V44.2q-.69.73-1.48,1.41,0-3.56.08-8.22a13.82,13.82,0,0,0,1.4-1.71v2.06l-.05.07Q128,38.6,128,39.34ZM93.17,40.9V39.18a18.19,18.19,0,0,0,1.67,1.93q0,1,0,1.64Q94,41.88,93.17,40.9Zm0-3.22V35.57a15.55,15.55,0,0,0,2.17,2.56q0,.79,0,2A17.38,17.38,0,0,1,93.17,37.68Z"/><path class="cls-1" d="M80.79,84.14A29.14,29.14,0,0,1,66,87.63a29.13,29.13,0,0,1-14.78-3.49q-6.13-3.51-6.13-8.49t6.13-8.45A29.42,29.42,0,0,1,66,63.67,29.42,29.42,0,0,1,80.79,67.2q6.13,3.51,6.13,8.45T80.79,84.14Z"/><rect class="cls-8" x="46.04" y="64.84" width="34.95" height="9.98"/><path class="cls-9" d="M75.9,82.93a24.24,24.24,0,0,1-12.37,2.94,24.24,24.24,0,0,1-12.36-2.94Q46,80,46,75.77t5.13-7.12a24.47,24.47,0,0,1,12.37-3,24.47,24.47,0,0,1,12.37,3q5.12,3,5.12,7.12T75.9,82.93Z"/><path class="cls-10" d="M75.9,71.72a24.24,24.24,0,0,1-12.37,2.94,24.24,24.24,0,0,1-12.36-2.94Q46,68.76,46,64.56t5.13-7.12a24.47,24.47,0,0,1,12.37-3,24.47,24.47,0,0,1,12.37,3Q81,60.4,81,64.56T75.9,71.72Z"/><path class="cls-11" d="M71.31,69.25a15.35,15.35,0,0,1-7.79,1.84,15.34,15.34,0,0,1-7.79-1.84q-3.23-1.85-3.23-4.47t3.23-4.45a15.5,15.5,0,0,1,7.79-1.86,15.5,15.5,0,0,1,7.79,1.86q3.23,1.85,3.23,4.45T71.31,69.25Z"/><path class="cls-12" d="M70.42,68.72a13.6,13.6,0,0,1-6.9,1.63,13.6,13.6,0,0,1-6.9-1.63q-2.86-1.64-2.86-4t2.86-3.94a13.73,13.73,0,0,1,6.9-1.65,13.73,13.73,0,0,1,6.9,1.65q2.86,1.64,2.86,3.94T70.42,68.72Z"/><path class="cls-13" d="M63,20.73l0,0v0ZM44,7.27A14.54,14.54,0,0,1,46.55,8.8L72.78,21.11l7.89,4.82-4.52,5.7v7.67l1.53.6a1.6,1.6,0,0,1,.85,2,1.34,1.34,0,0,1-.3.58,4.94,4.94,0,0,1-.44.44l-.58.33Q73.9,45,70.53,46.71a8,8,0,0,1-3.32.82,11.08,11.08,0,0,1-3.29-.33l-7.15.9-.55.74-10.77,3-.58-.36-3,.44-5.21-3.29-3.7.88q-1.18,2.49-5,2.66-1.32,2.71-5,2.66a5.11,5.11,0,0,1-5,2.66,6.14,6.14,0,0,1-1.29,1.29,2.3,2.3,0,0,1-1.51.49,5,5,0,0,1-2.19-.74,8.6,8.6,0,0,1-2-1.64l-.3-.33A11.3,11.3,0,0,1,9,53.92a6.9,6.9,0,0,1-.47-1.59,8.66,8.66,0,0,1-.05-1,2.21,2.21,0,0,1,.6-1.59,11.51,11.51,0,0,1,2.82-2.11l2.6-1.4q1.23-.63,2.44-1.29l2.6-1.37Q20.73,43,22,42.32L24.57,41,27,39.66q1-.58,2.14-1.07l0,0v-2.3a3.37,3.37,0,0,1-.74-.19A30.28,30.28,0,0,1,25,34.79a15.07,15.07,0,0,1-2.74-1.67,8.68,8.68,0,0,1-1.86-2A13.52,13.52,0,0,1,19.22,29V15.08a9.36,9.36,0,0,1,.33-2.27,5.83,5.83,0,0,1,1-2.14,9.75,9.75,0,0,1,2-2A13.84,13.84,0,0,1,25.42,7.1,19.91,19.91,0,0,1,28.9,6a24.67,24.67,0,0,1,3.86-.58,28.85,28.85,0,0,1,4,.05,24.75,24.75,0,0,1,3.84.63A23.14,23.14,0,0,1,44,7.27ZM36.33,9.76l.16.16h0Z"/><path class="cls-14" d="M22.76,25.26l-2,1.92v5.1a4.93,4.93,0,0,1-.74-.17,28.9,28.9,0,0,1-3.39-1.3,13.68,13.68,0,0,1-2.73-1.66,8.7,8.7,0,0,1-1.88-2A12.38,12.38,0,0,1,10.85,25V11.1A12,12,0,0,0,12,13.21a8.89,8.89,0,0,0,1.88,2,13.68,13.68,0,0,0,2.73,1.66A23.75,23.75,0,0,0,20,18.13a15.54,15.54,0,0,0,1.72.38l1.34,6.23Zm18.62-7.92,0,7a10.64,10.64,0,0,1-3.38.58,8.32,8.32,0,0,1-3.09-.58,6.66,6.66,0,0,1-1.56-.83,4.5,4.5,0,0,1-1-1,1.62,1.62,0,0,1-.28-.57q-.45-1.76-.85-3.52a3.65,3.65,0,0,0,.59-.12,31.83,31.83,0,0,0,3.46-1.24,29.16,29.16,0,0,0,2.73-1.33Z"/><path class="cls-10" d="M64.38,17.14l-.26.34L39.28,5.81A8.74,8.74,0,0,1,40.21,7a12.9,12.9,0,0,1,1.17,2.12,3.74,3.74,0,0,1,0,2.7l-2.61-1.22A5.45,5.45,0,0,0,38.14,8a7.32,7.32,0,0,0-1.26-1.81,3.36,3.36,0,0,0-.54-.47q-.9-.61-1.84-1.18A3.77,3.77,0,0,0,34,4.35a25.25,25.25,0,0,0-2.87-.9A18.56,18.56,0,0,0,28,2.94a19.08,19.08,0,0,0-3.31-.06,20.33,20.33,0,0,0-3.22.47,16.38,16.38,0,0,0-2.89.94,12.15,12.15,0,0,0-2.37,1.32A14.41,14.41,0,0,0,14.59,7l-.17.23-.13.18-.64,1.29-.13.48a3.67,3.67,0,0,0,0,1.84.58.58,0,0,0,0,.17,12,12,0,0,0,.82,1.58,5.2,5.2,0,0,0,.74.95,5.56,5.56,0,0,0,.83.72,13,13,0,0,0,2.32,1.31,33.61,33.61,0,0,0,3.17,1.21l.35,1.59A15.54,15.54,0,0,1,20,18.13a23.75,23.75,0,0,1-3.4-1.26,13.68,13.68,0,0,1-2.73-1.66,8.89,8.89,0,0,1-1.88-2,12,12,0,0,1-1.16-2.11,9.79,9.79,0,0,1,.32-2.25,5.88,5.88,0,0,1,1-2.15,9.24,9.24,0,0,1,2-2A14.42,14.42,0,0,1,17,3.12,20.23,20.23,0,0,1,20.5,2a27.15,27.15,0,0,1,3.87-.59,29.69,29.69,0,0,1,4,.06,25,25,0,0,1,3.83.64A20.64,20.64,0,0,1,35.6,3.3a14.52,14.52,0,0,1,2.56,1.53Zm1.83,10.32,0,10.58-.52.4V26.17l.46-.26ZM30.79,17q1.46-.47,2.88-1.06a24.63,24.63,0,0,0,2.26-1.1l2,.94a29.16,29.16,0,0,1-2.73,1.33,31.83,31.83,0,0,1-3.46,1.24,3.65,3.65,0,0,1-.59.12Z"/><path class="cls-15" d="M15.07,9.87a7.35,7.35,0,0,0,.45,1.61,5,5,0,0,0,1,1.54,6.86,6.86,0,0,0,1.68,1.32q1.45.8,3,1.45l.25,1.12a33.61,33.61,0,0,1-3.17-1.21,13,13,0,0,1-2.32-1.31,5.56,5.56,0,0,1-.83-.72Zm20.86,4.92a24.63,24.63,0,0,1-2.26,1.1q-1.42.59-2.88,1.06L30.57,16a7.68,7.68,0,0,0,.95-.27,24.67,24.67,0,0,0,2.37-1,7.34,7.34,0,0,0,.86-.52Z"/><path class="cls-16" d="M15.2,9.39l-.13.48v3.81a5.2,5.2,0,0,1-.74-.95,12,12,0,0,1-.82-1.58.58.58,0,0,1,0-.17,3.67,3.67,0,0,1,0-1.84ZM34.5,4.57l-1.29.5a9.29,9.29,0,0,0-1-.41A20.26,20.26,0,0,0,29.51,4a18,18,0,0,0-2.87-.29,18.24,18.24,0,0,0-2.9.17A15.25,15.25,0,0,0,21,4.5a10.35,10.35,0,0,0-2.33,1A21.73,21.73,0,0,0,16.4,7.1L14.6,7h0a14.41,14.41,0,0,1,1.6-1.33,12.15,12.15,0,0,1,2.37-1.32,16.38,16.38,0,0,1,2.89-.94,20.33,20.33,0,0,1,3.22-.47A19.08,19.08,0,0,1,28,2.94a18.56,18.56,0,0,1,3.19.51,25.25,25.25,0,0,1,2.87.9A3.77,3.77,0,0,1,34.5,4.57Zm4.27,6-1.36-.64a4.87,4.87,0,0,0-.76-2.26A3.81,3.81,0,0,0,36,6.91l.88-.69A7.32,7.32,0,0,1,38.14,8,5.45,5.45,0,0,1,38.77,10.56Zm17.11,6.1a1.58,1.58,0,0,0-1-.38,1.52,1.52,0,0,0-1.22.4H51.84L41.38,11.78a3.74,3.74,0,0,0,0-2.7A12.9,12.9,0,0,0,40.21,7a8.74,8.74,0,0,0-.93-1.15L64.12,17.47l-1,1.23q-2.75-1-5.57-1.84a6.09,6.09,0,0,0-1.18-.21Zm-14.55,7.7,0-7q3.22,1.52,6.47,3a2,2,0,0,1,.94.85l.09.19a2.13,2.13,0,0,1-1.44,1.26Z"/><path class="cls-17" d="M72.29,8l-6.41,8.16-2.15,2.73-.59-.22,1-1.23.26-.34,7.29-9.28ZM15.07,9.87l.13-.48L16.4,7.1a21.73,21.73,0,0,1,2.3-1.59A10.35,10.35,0,0,1,21,4.5a15.25,15.25,0,0,1,2.71-.59,18.24,18.24,0,0,1,2.9-.17A18,18,0,0,1,29.51,4a20.26,20.26,0,0,1,2.67.64,9.29,9.29,0,0,1,1,.41L36,6.91a3.81,3.81,0,0,1,.65.74,4.87,4.87,0,0,1,.76,2.26q-3.74-1.76-7.53-3.38A11.07,11.07,0,0,0,28.14,6l-.21-.17.17.16A.62.62,0,0,1,28,7a2,2,0,0,1-.66.34,5,5,0,0,1-.86.19A1.4,1.4,0,0,1,25,6.63a.51.51,0,0,1,0-.44,1,1,0,0,1,.22-.33l0,0-.06,0a6.75,6.75,0,0,0-4.32,2,4.84,4.84,0,0,0-.93,1.31l0,.1a.86.86,0,0,0,0,.2v.49l1.24,5.88q-1.52-.65-3-1.45A6.86,6.86,0,0,1,16.49,13a5,5,0,0,1-1-1.54A7.35,7.35,0,0,1,15.07,9.87ZM25.91,26.18l5.36,3.38.18.11,2.87,1.81,2.72,1.73-.5.75L22.76,25.26l.32-.53.14-.25Zm27.7-9.51a1.52,1.52,0,0,1,1.22-.4,1.58,1.58,0,0,1,1,.38l.14.14a1.16,1.16,0,0,1,.22.37,1,1,0,0,1-.78.74,1.9,1.9,0,0,1-1.91-.46.82.82,0,0,1-.23-.35A1.45,1.45,0,0,1,53.62,16.68ZM24.57,7a1.56,1.56,0,0,1,.34.1,2,2,0,0,1,1,.79L26,9,24.6,8.09Zm2.78-1-.42-.14-.27,0h-.13l-.42.07-.23.1-.19.13-.13.14-.06.16,0,.16.09.15.15.14.21.1L26.5,7,27,7l.24-.1.19-.12.12-.15.06-.16,0-.16-.09-.15L27.4,6ZM60.63,23a1,1,0,0,1-.78.74,1.92,1.92,0,0,1-1.92-.46A1.06,1.06,0,0,1,57.7,23a1.41,1.41,0,0,1,.55-.63,1.68,1.68,0,0,1,1-.2,1.54,1.54,0,0,1,1.2.53A1.26,1.26,0,0,1,60.63,23Zm-6-6.26,0,0,0,.25v.18h.18l0-.34,0-.07,0,0,.12,0,.47.07L55,16.58l0-.06v-.17h-.19l0,.17-.06.06-.12,0-.47.09v.12l.47-.09ZM34.75,14.23a7.34,7.34,0,0,1-.86.52,24.67,24.67,0,0,1-2.37,1,7.68,7.68,0,0,1-.95.27l-.46-2,.07-.07a2.26,2.26,0,0,1,.42-.31,2.65,2.65,0,0,1,.84-.32,2,2,0,0,1,1,.06A19.53,19.53,0,0,1,34.75,14.23ZM45.64,28l0,0,0,.25v.18h.18l0-.35,0-.06,0,0,.12,0,.47.07L46,27.81l0-.06v-.17h-.19l0,.17-.06.07-.59.12V28l.47-.08Zm1.63.42-.06.16a1,1,0,0,1-.72.58,1.94,1.94,0,0,1-1.4-.1,2.07,2.07,0,0,1-.51-.36.9.9,0,0,1-.23-.35,1.42,1.42,0,0,1,1.51-.82A1.57,1.57,0,0,1,47,28,1.25,1.25,0,0,1,47.27,28.41ZM59,22.63l0,.26v.18h.18l0-.35,0-.07,0,0,.12,0,.47.06-.59-.22,0-.06V22.2H59.1l0,.17-.06.06-.12,0-.47.1v.11l.47-.08.12,0Z"/><path class="cls-18" d="M16.4,7.1,15.2,9.39l-1.7-.26.13-.48.64-1.29.13-.18L14.6,7Zm20.48-.88L36,6.91,33.21,5.07l1.29-.5q.94.57,1.84,1.18A3.36,3.36,0,0,1,36.88,6.22ZM68,20.63l-2.13-4.45L72.29,8V22L70,24.81l-.44-.91.12-.12a1.17,1.17,0,0,0,.26-.5,3.86,3.86,0,0,0,.11-1.12V22.1a1.22,1.22,0,0,0-.14-.45.8.8,0,0,0-.38-.37ZM28.14,6l.47.49a1.25,1.25,0,0,0-.5.66l-.17.49a2.25,2.25,0,0,0-1.48,0l-.55.23a2,2,0,0,0-1-.79,1.56,1.56,0,0,0-.34-.1l.48-1h0l.12-.09h0a1,1,0,0,0-.22.33.51.51,0,0,0,0,.44,1.4,1.4,0,0,0,1.47.85,5,5,0,0,0,.86-.19A2,2,0,0,0,28,7a.62.62,0,0,0,.11-1Zm37.6,32.48V39a2.66,2.66,0,0,1-.42.9,5.65,5.65,0,0,1-1.8,1.59,11.35,11.35,0,0,1-3,1.15,7.52,7.52,0,0,1-1.74.18,13.66,13.66,0,0,1-1.77-.12q-.36-.06-.72-.14V31.12q2.57-.31,4.24-.41a5.42,5.42,0,0,0,1.61-.4,11.17,11.17,0,0,0,2.45-1.48,8.42,8.42,0,0,0,1.1-1.12Zm-43-13.17L36.55,34V47.55H36.5l-3,.45-5.21-3.28a30.81,30.81,0,0,0,3.39-1.38,1.92,1.92,0,0,0,1-1,3.17,3.17,0,0,0,.11-2,10.09,10.09,0,0,0-1.15-2.7q-.36-.59-.77-1.14L30.5,36l-.07-.09-.06-.08-1.06-.87-.14-.12h0q-5.43-4.3-6.61-2.25l-1.81,2V27.18Zm31.88-8.48v0h0l-.11,0-.47.09v-.12l.47-.09.12,0,.06-.06,0-.17h.19v.17l0,.06.59.23-.47-.07-.12,0,0,0,0,.07,0,.34h-.18V17ZM45.66,28v0h0l-.11,0-.47.08v-.11l.59-.12.06-.07,0-.17h.19v.17l0,.06.59.23L46.09,28,46,28l0,0,0,.06,0,.35h-.18v-.18ZM59,23.07v-.18l0-.26v0h0l-.12,0-.47.08v-.11l.47-.1.12,0,.06-.06,0-.17h.19v.17l0,.06.59.22-.47-.06-.12,0,0,0,0,.07,0,.35Z"/><path class="cls-19" d="M37.41,9.92l1.36.64,2.61,1.22,10.47,4.91h1.77a1.45,1.45,0,0,0-.29.42v.56q.09.46.91.65a1.93,1.93,0,0,0,1.38-.11q.55-.3.59-.54a4.32,4.32,0,0,0,0-.49A1.16,1.16,0,0,0,56,16.8l-.14-.14h.52a6.09,6.09,0,0,1,1.18.21q2.82.8,5.57,1.84l.59.22q2.16.82,4.28,1.71l1.52.65a.8.8,0,0,1,.38.37,1.22,1.22,0,0,1,.14.45,3.82,3.82,0,0,1-.1.64,1.17,1.17,0,0,1-.26.5,2.36,2.36,0,0,1-.29.29l-.23.16q-.7.43-1.42.84l-2.23,1.21a4.32,4.32,0,0,1-.9,1,11.17,11.17,0,0,1-2.45,1.48,5.42,5.42,0,0,1-1.61.4q-1.67.11-3.35.11l-.89.31L37.05,33.27v-.07l-2.72-1.73,10.19-2.3a1.47,1.47,0,0,0,.76.36,2,2,0,0,0,1.38-.12q.55-.29.59-.53t0-.35L57,26.35q4.53.79,5.77-1.7l.06-.13a5.23,5.23,0,0,0-.35-1.39,1.39,1.39,0,0,0-.63-.69,6,6,0,0,0-1.94-.64,5.31,5.31,0,0,0-1.88,0,4.39,4.39,0,0,0-1.59.61,3.11,3.11,0,0,0-.95.9.94.94,0,0,0-.15.39L31.31,29.17,27.82,10.78a3.53,3.53,0,0,1-2,.37,5.39,5.39,0,0,1-1.65-.46,5.72,5.72,0,0,1-1.34-.94l.12.65,3,15.78-2.7-1.7L19.91,9.22l0-.1a4.84,4.84,0,0,1,.93-1.31,6.75,6.75,0,0,1,4.32-2l-.12.09h0l-.48,1,0,1.11L26,9l2-.26.67-1.13,0-1.13L28.14,6a11.07,11.07,0,0,1,1.74.59Q33.67,8.16,37.41,9.92Zm-.35,38v-.54l10.78-3,.11-.14.44-.06-.55.74ZM31.13,18.42q.4,1.76.85,3.52a1.62,1.62,0,0,0,.28.57,4.5,4.5,0,0,0,1,1,6.66,6.66,0,0,0,1.56.83,8.32,8.32,0,0,0,3.09.58,10.64,10.64,0,0,0,3.38-.58l6.12-1.72a2.13,2.13,0,0,0,1.44-1.26l-.09-.19.09-.19a2,2,0,0,0-1-1q-3.25-1.49-6.47-3l-6.63-3.11A19.53,19.53,0,0,0,32.4,13a2,2,0,0,0-1-.06,2.64,2.64,0,0,0-.84.32,2.31,2.31,0,0,0-.49.37l.07.32-.07.07.46,2,.22.95Z"/><polygon class="cls-20" points="47.94 44.2 47.83 44.34 37.05 47.36 37.05 40.83 42.8 41.44 42.8 44.86 47.94 44.2"/><path class="cls-21" d="M20.74,34.59l1.81-2q1.19-2,6.61,2.25a8.38,8.38,0,0,1,.76,2.86s0,.19,0,.52a7,7,0,0,1-.24,1.08q-.5,1.55-1.55,1.55-.29,0-.47-.63-.2-.87-.36-1.38a2.59,2.59,0,0,0-2.62-2,1.77,1.77,0,0,0-.95.17.55.55,0,0,0-.17.46q0,.14.13,1.86t.12,1.85A8.7,8.7,0,0,1,23.53,43q-.32,1.35-.75,1.6a.41.41,0,0,1-.28-.32,1.83,1.83,0,0,1,0-.35,7.56,7.56,0,0,0,0-2.48q-.37-2.27-2.42-2.27-1,0-1.53,3.14l-.4,2.5a5.29,5.29,0,0,1-.62,1.87l-.81,0a2.61,2.61,0,0,1-.5-1.13q-.21-1-.35-1.5-.49-1.85-1.86-1.85a1.4,1.4,0,0,0-1.35,1.06,3.87,3.87,0,0,0-.23,1.35s0,.32.08.92a12.82,12.82,0,0,1,0,2q-.31,2.81-2,2.81-.4,0-.83-.71-.12-.2-.81-1.57-1.12-2.28-2.27-2.28t-1.32.68a2.78,2.78,0,0,0-.11.88l0,.08a6.16,6.16,0,0,0-1.62-1,6.3,6.3,0,0,0-.85-.12,3.3,3.3,0,0,0-.71,0,2.31,2.31,0,0,0-.8,2.73q-.33-.27-.89-.65l-.09-.06a6.5,6.5,0,0,1-.07-1,2.15,2.15,0,0,1,.62-1.57A11.74,11.74,0,0,1,3.5,43.69Q4.79,43,6.1,42.3L8.53,41l2.6-1.36,2.44-1.29L16.17,37l2.43-1.29q1-.57,2.13-1.06Z"/><path class="cls-22" d="M29.17,34.83h0l.14.12,1.06.87.06.08.07.09.36.47q.41.55.77,1.14a10.09,10.09,0,0,1,1.15,2.7,3.17,3.17,0,0,1-.11,2,1.92,1.92,0,0,1-1,1,30.81,30.81,0,0,1-3.39,1.38l-3.7.86q-1.18,2.49-5,2.67-1.31,2.71-5,2.66a5.17,5.17,0,0,1-5,2.67h0A6.45,6.45,0,0,1,8.2,54.86a2.29,2.29,0,0,1-1.51.49,4.93,4.93,0,0,1-2.2-.74,9.76,9.76,0,0,1-2-1.66l-.28-.33A10.74,10.74,0,0,1,.59,49.94a6.37,6.37,0,0,1-.47-1.59l.09.06q.56.38.89.65h0l.06.23.73,1.79a12.5,12.5,0,0,0,1.38,1.58,4.89,4.89,0,0,0,3.54,1.61,1.67,1.67,0,0,0,.44-.43,5.32,5.32,0,0,0,.53-1,1.19,1.19,0,0,0,0-.34A9.21,9.21,0,0,0,7.4,51q-.09-.25-.19-.49A10.49,10.49,0,0,0,6,48.49a6.57,6.57,0,0,0-.48-.59q-.21-.23-.44-.43l0,0,0-.08a2.78,2.78,0,0,1,.11-.88q.28-.68,1.32-.68t2.27,2.28q.68,1.37.81,1.57.43.71.83.71,1.71,0,2-2.81a12.82,12.82,0,0,0,0-2q-.08-.9-.08-.92a3.87,3.87,0,0,1,.23-1.35A1.4,1.4,0,0,1,14,42.27q1.37,0,1.86,1.85.13.5.35,1.5a2.61,2.61,0,0,0,.5,1.13l.81,0a5.29,5.29,0,0,0,.62-1.87l.4-2.5q.51-3.14,1.53-3.14,2,0,2.42,2.27a7.56,7.56,0,0,1,0,2.48,1.83,1.83,0,0,0,0,.35.41.41,0,0,0,.28.32q.43-.25.75-1.6a8.7,8.7,0,0,0,.25-1.86q0-.14-.12-1.85t-.13-1.86a.55.55,0,0,1,.17-.46,1.77,1.77,0,0,1,.95-.17,2.59,2.59,0,0,1,2.62,2q.16.51.36,1.38.18.63.47.63,1.06,0,1.55-1.55a7,7,0,0,0,.24-1.08q0-.5,0-.52A8.38,8.38,0,0,0,29.17,34.83Z"/><path class="cls-23" d="M3.47,46.42a.85.85,0,0,0,0,.34A8.44,8.44,0,0,0,4,48.7a11.3,11.3,0,0,0,1.17,2.08A6,6,0,0,0,7.8,52.83a5.32,5.32,0,0,1-.53,1,1.67,1.67,0,0,1-.44.43,4.89,4.89,0,0,1-3.54-1.61,12.5,12.5,0,0,1-1.38-1.58l-.73-1.79-.06-.23h0a2.31,2.31,0,0,1,.8-2.73,3.3,3.3,0,0,1,.71,0A6.3,6.3,0,0,1,3.47,46.42Z"/><path class="cls-24" d="M7.8,52.83a6,6,0,0,1-2.59-2.05A11.3,11.3,0,0,1,4,48.7a8.44,8.44,0,0,1-.58-1.94.85.85,0,0,1,0-.34,6.16,6.16,0,0,1,1.62,1l0,0q.23.2.44.43a6.57,6.57,0,0,1,.48.59,10.49,10.49,0,0,1,1.18,2.06q.1.24.19.49a9.21,9.21,0,0,1,.38,1.45A1.19,1.19,0,0,1,7.8,52.83Z"/><path class="cls-25" d="M37.05,47.36v.54l-.56-.35h.06V34l.5-.75V47.36ZM65.89,16.19,68,20.63q-2.13-.89-4.28-1.71ZM28,8.71,26,9l0-1.1.55-.23a2.25,2.25,0,0,1,1.48,0Zm-.62-2.76,0,0,.15.13.09.15,0,.16-.06.16-.12.15-.19.12L27,7,26.5,7,26,6.93l-.21-.1-.15-.14-.09-.15,0-.16.06-.16.13-.14.19-.13.23-.1.42-.07h.13l.27,0ZM42.8,34.09l13.54-3V29.59l.89-.31q1.68,0,3.35-.11a5.42,5.42,0,0,0,1.61-.4,11.17,11.17,0,0,0,2.45-1.48,4.32,4.32,0,0,0,.9-1l.2-.11v1.53a8.42,8.42,0,0,1-1.1,1.12,11.17,11.17,0,0,1-2.45,1.48,5.42,5.42,0,0,1-1.61.4q-1.67.11-4.24.41V42.55q.35.09.72.14a13.66,13.66,0,0,0,1.77.12,7.52,7.52,0,0,0,1.74-.18,11.35,11.35,0,0,0,3-1.15,5.65,5.65,0,0,0,1.8-1.59,2.66,2.66,0,0,0,.42-.9v-.55l.52-.4,0-10.58,1.55-.85v8.73l1.53.61a1.69,1.69,0,0,1,.54,2.6,3.87,3.87,0,0,1-.43.42l-.57.33q-3.32,1.77-6.71,3.43a8.35,8.35,0,0,1-3.31.83,10.9,10.9,0,0,1-3.28-.35l-7.17.92-.44.06-5.14.66V34.09Z"/><path class="cls-26" d="M44.35,28.33a.9.9,0,0,0,.23.35,2.07,2.07,0,0,0,.51.36,1.94,1.94,0,0,0,1.4.1,1,1,0,0,0,.72-.58l.06-.16v.14q0,.17,0,.35t-.59.53a2,2,0,0,1-1.38.12,1.47,1.47,0,0,1-.76-.36.59.59,0,0,1-.16-.29Zm9-11.23a.82.82,0,0,0,.23.35,1.9,1.9,0,0,0,1.91.46,1,1,0,0,0,.78-.74,4.32,4.32,0,0,1,0,.49q0,.24-.59.54a1.93,1.93,0,0,1-1.38.11q-.83-.19-.91-.65ZM27.94,7.59l.17-.49a1.25,1.25,0,0,1,.5-.66l0,1.13L28,8.71ZM57.7,23a1.06,1.06,0,0,0,.23.35,1.92,1.92,0,0,0,1.92.46,1,1,0,0,0,.78-.74,3,3,0,0,1,0,.48q0,.24-.58.54a2,2,0,0,1-1.38.12q-.83-.2-.92-.65Z"/><path class="cls-27" d="M31.28,29.56l-5.36-3.38-3-15.78a5.63,5.63,0,0,0,1.22.83,5.39,5.39,0,0,0,1.65.46,3.53,3.53,0,0,0,2-.37l3.38,17.88Zm13.07-1.23v.56a.59.59,0,0,0,.16.29l-10.19,2.3-2.87-1.81,23.92-5.41a1.06,1.06,0,0,1,.07-.25L57,26.35l-9.77,2.21v-.14A1.25,1.25,0,0,0,47,28a1.57,1.57,0,0,0-1.19-.53A1.42,1.42,0,0,0,44.35,28.33Z"/><path class="cls-28" d="M23.22,24.49l-.14.25-1.34-6.23-.35-1.59-.25-1.12L19.9,9.92V9.43a.86.86,0,0,1,0-.2Zm8,4.71L27.82,11.32a3.53,3.53,0,0,1-2,.37,5.39,5.39,0,0,1-1.65-.46,5.63,5.63,0,0,1-1.22-.83l-.12-.65a5.72,5.72,0,0,0,1.34.94,5.39,5.39,0,0,0,1.65.46,3.53,3.53,0,0,0,2-.37l3.48,18.39ZM57,26.35,55.44,24l-.07-.11v-.18a.94.94,0,0,1,.15-.39,3.11,3.11,0,0,1,.95-.9,4.39,4.39,0,0,1,1.59-.61,5.31,5.31,0,0,1,1.88,0,6,6,0,0,1,1.94.64,1.39,1.39,0,0,1,.63.69,5.23,5.23,0,0,1,.35,1.39l-.06.13Q61.57,27.14,57,26.35ZM57.7,23v.56q.1.45.92.65A2,2,0,0,0,60,24q.54-.3.58-.54a3,3,0,0,0,0-.48,1.26,1.26,0,0,0-.22-.37,1.54,1.54,0,0,0-1.2-.53,1.68,1.68,0,0,0-1,.2A1.41,1.41,0,0,0,57.7,23ZM48.8,21.2a2,2,0,0,0-.94-.85q-3.25-1.49-6.47-3l-3.45-1.61-2-.94-1.18-.56a19.53,19.53,0,0,0-2.35-.86,2,2,0,0,0-1-.06,2.65,2.65,0,0,0-.84.32,2.26,2.26,0,0,0-.42.31l-.07-.32a2.31,2.31,0,0,1,.49-.37,2.64,2.64,0,0,1,.84-.32,2,2,0,0,1,1,.06,19.53,19.53,0,0,1,2.35.86L41.38,17q3.22,1.52,6.47,3a2,2,0,0,1,1,1Z"/><path class="cls-29" d="M31.28,29.56l-.07-.37.1,0,24.07-5.44v.18l.07.11a1.06,1.06,0,0,0-.07.25L31.45,29.67Zm25.06,0-13.54,3-5.75,1.26v-.54l19.29-4.22.89-.31q1.68,0,3.35-.11a5.42,5.42,0,0,0,1.61-.4,11.17,11.17,0,0,0,2.45-1.48,4.32,4.32,0,0,0,.9-1l2.23-1.21q.72-.41,1.42-.84l.23-.16a2.36,2.36,0,0,0,.29-.29,1.17,1.17,0,0,0,.26-.5,3.82,3.82,0,0,0,.1-.64v.05A3.86,3.86,0,0,1,70,23.28a1.17,1.17,0,0,1-.26.5l-.12.12a2.34,2.34,0,0,1-.4.33q-.7.43-1.42.84l-1.56.84-.46.26-.2.11a4.32,4.32,0,0,1-.9,1,11.17,11.17,0,0,1-2.45,1.48,5.42,5.42,0,0,1-1.61.4q-1.67.11-3.35.11Z"/><path class="cls-30" d="M67.77,26.61l-1.55.85V25.92l1.56-.84Zm-25,5.95,13.54-3v1.53l-13.54,3Z"/><path class="cls-31" d="M67.77,26.61V25.07q.72-.41,1.42-.84a2.34,2.34,0,0,0,.4-.33l.44.91-2.26,2.85Z"/></svg>