<svg id="Layer_1" data-name="Layer 1" xmlns="http://www.w3.org/2000/svg" viewBox="0 0 200 200"><defs><style>.cls-1{fill:#878787;}.cls-2{fill:#3ab986;}.cls-3{fill:#00a9ce;}.cls-4{fill:none;}.cls-5{fill:#816fb2;}.cls-6{opacity:0.2;}.cls-7{fill:#fff;}</style></defs><title>Artboard 28 copy 3</title><path class="cls-1" d="M111.1,143.54V134h.07V113H95.53v6.29c0,8.3,0,16.32,0,23.55,0,5,0,23.61,0,27.68H111.1Z"/><path class="cls-2" d="M95.51,170.5c0,10.7,0,3.6,0,3.62A10.25,10.25,0,0,1,78,180.82a10.51,10.51,0,0,1-2.64-4.72c-.46-1.67-.4-3.44-.93-5.07a7.8,7.8,0,0,0-7.36-5.36c-5.5,0-8,5.32-7.68,10.16a26.62,26.62,0,0,0,.58,3.93,25.85,25.85,0,0,0,51.07-5.64V170.5Z"/><path class="cls-3" d="M17.59,18a10.5,10.5,0,0,0,21,0c0-5.8-10.5-18-10.5-18S17.59,12.18,17.59,18Z"/><path class="cls-3" d="M47.86,35.23a10.5,10.5,0,1,0,21,0c0-5.8-10.5-18-10.5-18S47.86,29.43,47.86,35.23Z"/><path class="cls-1" d="M112.59,53.11l-1.48-.19V45.08h0a7.77,7.77,0,0,0-7.76-7.75h0a7.77,7.77,0,0,0-7.76,7.75h0c0,2.16,0,4.82,0,7.71-.62.06-1.22.13-1.84.2"/><path class="cls-4" d="M111.1,118.53h0l.07,0Z"/><path class="cls-4" d="M134.38,118.65l.57.33Z"/><path class="cls-4" d="M95.53,119.24c-.25-.15-.52-.28-.78-.43.26.15.53.3.78.46Z"/><path class="cls-4" d="M70,119.22l-.49.28a13.73,13.73,0,0,0-3,2.61A18,18,0,0,1,70,119.22Z"/><path class="cls-4" d="M71,118.68l.08,0Z"/><path class="cls-4" d="M138.84,122.11a13.73,13.73,0,0,0-3-2.6l-.5-.29A18,18,0,0,1,138.84,122.11Z"/><path class="cls-3" d="M70,119.22c.31-.19.62-.37.94-.54C70.65,118.86,70.33,119,70,119.22Z"/><path class="cls-5" d="M85.77,54.09a86.39,86.39,0,0,0-23.13,8.13l-.6.32c-.64.34-1.28.7-1.91,1.06C38.38,76,24,97.36,24,121.66c0,.7,0,1.39.06,2.08,0,0,0,0,0,.06q-.06,1.53-.06,3.08a1,1,0,0,0,.31.73,1,1,0,0,0,1.64-.39c4.56-12.68,20.83-13.73,31.15-7.29a15.44,15.44,0,0,1,5.51,6.41,1.38,1.38,0,0,0,2.2.38,14.36,14.36,0,0,1,2.75-4.16,13.73,13.73,0,0,1,3-2.61l.49-.28c.3-.19.62-.37.94-.54l.08,0a22.56,22.56,0,0,1,4.64-1.92,101.36,101.36,0,0,1-1.89-19.69C74.82,79.89,79.1,64.23,85.77,54.09Z"/><path class="cls-5" d="M144.83,62.25a86.38,86.38,0,0,0-23.17-8.15c6.67,10.14,11,25.8,11,43.38a101.35,101.35,0,0,1-1.89,19.69,22.54,22.54,0,0,1,4.68,1.95l.57.33.4.23.5.29a13.73,13.73,0,0,1,3,2.6,14.35,14.35,0,0,1,2.75,4.16,1.38,1.38,0,0,0,2.2-.38,15.44,15.44,0,0,1,5.51-6.41c9.95-6.21,26.6-5.37,31.15,7.29a1,1,0,0,0,1.65.38q.19-1.9.25-3.84c0-.7.06-1.39.06-2.1C183.43,96.45,168,74.38,144.83,62.25Z"/><path class="cls-2" d="M121.66,54.09a91.54,91.54,0,0,0-35.89,0c-6.67,10.14-11,25.8-11,43.38a101.36,101.36,0,0,0,1.89,19.69,25,25,0,0,1,7.06-1,23.94,23.94,0,0,1,12,3.11c.26.14.52.27.78.43v0a15.73,15.73,0,0,1,6.36,7.45.87.87,0,0,0,1.61,0,16.24,16.24,0,0,1,7.6-8.16h0l.07,0a24.13,24.13,0,0,1,11.47-2.8,25,25,0,0,1,7.06,1,101.35,101.35,0,0,0,1.89-19.69C132.61,79.89,128.33,64.23,121.66,54.09Z"/><g class="cls-6"><path class="cls-7" d="M75.5,85.54C77,72.9,80.66,61.87,85.77,54.09a86.39,86.39,0,0,0-23.13,8.13l-.6.32c-.64.34-1.28.7-1.91,1.06-1.13.64-2.24,1.32-3.33,2C57.07,72.3,64.1,79.41,75.5,85.54Z"/><path class="cls-7" d="M144.83,62.25a86.38,86.38,0,0,0-23.17-8.15c6.67,10.14,11,25.8,11,43.38,0,1.18,0,2.35-.06,3.52,19.05,1.55,35.47-.52,45-5.39C171.08,81.64,159.5,69.94,144.83,62.25Z"/><path class="cls-7" d="M117.48,99.08c5.15.88,10.19,1.51,15.07,1.9,0-1.16.06-2.33.06-3.52,0-17.58-4.28-33.24-11-43.38a91.54,91.54,0,0,0-35.89,0C80.66,61.87,77,72.9,75.5,85.54,86.29,91.34,101,96.25,117.48,99.08Z"/></g></svg>