<svg id="Layer_1" data-name="Layer 1" xmlns="http://www.w3.org/2000/svg" viewBox="0 0 1129.22 968.03"><defs><style>.cls-1,.cls-12{fill:#fff;}.cls-1{stroke:#d3d3d3;stroke-miterlimit:10;stroke-width:12.57px;}.cls-2{fill:#ededef;}.cls-3{fill:#a0b5ac;opacity:0.5;}.cls-4{fill:#02c488;}.cls-5{fill:#c4c7d8;}.cls-6{fill:#c9905c;}.cls-7{fill:#eabd8d;}.cls-8{fill:#a5714e;}.cls-9{isolation:isolate;}.cls-10{fill:#4a2808;}.cls-11{fill:#7f4d32;}.cls-12{opacity:0.3;}.cls-13{fill:#c4925c;}.cls-14{fill:#070707;opacity:0.15;}</style></defs><title>Artboard 6</title><rect class="cls-1" x="220.43" y="59.25" width="849.53" height="849.53" transform="translate(69.29 -80.68) rotate(7.56)"/><rect class="cls-2" x="299.65" y="140.55" width="695.82" height="651.37" transform="translate(66.97 -81.14) rotate(7.56)"/><polygon class="cls-3" points="949.6 834.86 668.1 797.5 972.25 664.16 949.6 834.86"/><polygon class="cls-4" points="315.21 325.98 345.52 97.61 1035.3 189.15 1006.47 406.33 700.48 174.01 315.21 325.98"/><polygon class="cls-5" points="625.79 679.73 490.06 661.71 334.98 533.32 476.29 473.3 625.79 679.73"/><polygon class="cls-6" points="654.89 467.28 859.58 382.06 830.53 596.28 625.85 681.49 654.89 467.28"/><polygon class="cls-7" points="482.68 334.96 687.36 249.75 859.57 382.17 654.88 467.39 482.68 334.96"/><polygon class="cls-8" points="654.89 467.28 625.85 681.49 453.64 549.07 482.69 334.86 654.89 467.28"/><g class="cls-9"><path class="cls-10" d="M683.22,487.78l47.13-19.47-6.53,50.31-47.13,19.47Zm39.15,29.75,6.07-46.72-43.76,18.07-6.07,46.72,43.76-18.07Z"/><path class="cls-10" d="M702.92,518.5c2.51-1,4.43-1,4.29.06l0,.37-12,5,0-.37c.14-1.07,2.28-2.77,4.79-3.81l.85-.35-.21,1.64,1.23-.5.21-1.64Z"/><polygon class="cls-10" points="704.28 501.81 703.94 504.43 702.07 518.86 701.86 520.5 700.63 521 700.84 519.36 702.72 504.93 703.06 502.32 704.28 501.81"/><path class="cls-10" d="M711.89,482.54,710,497.35a9.34,9.34,0,0,1-5.17,6.72l-.85.35.34-2.62-1.22.51-.34,2.61-.85.35c-2.51,1-4.25-.29-3.91-3l1.92-14.82Z"/></g><path class="cls-10" d="M758.68,470.12l-.26,2c5.25-1.91,9-.1,9,4.17l-10.12,4.18-2,15.34a7.46,7.46,0,0,1-4.13,5.36c-2,.83-3.41-.22-3.13-2.36l.07-.49,1.51-.62-.07.49c-.16,1.24.66,1.85,1.83,1.37a4.35,4.35,0,0,0,2.41-3.12l2-15.34-10,4.13c1.15-4.71,5.8-10,11.07-12.48l.26-2Z"/><path class="cls-10" d="M736.75,465.68l47.12-19.46-6.53,50.31L730.21,516Zm39.13,29.76,6.06-46.72-43.76,18.07-6.06,46.72,43.76-18.07Z"/><path class="cls-10" d="M765.91,464.35a4.32,4.32,0,0,1-.36,1.87,1.71,1.71,0,0,1-.78.74.66.66,0,0,1-.41,0c-.29-.09-.43-.52-.06-1.17A6.67,6.67,0,0,1,765.91,464.35Z"/><path class="cls-10" d="M769.35,465.36a4.22,4.22,0,0,1-.35,1.85,1.74,1.74,0,0,1-.79.76.64.64,0,0,1-.4,0c-.29-.09-.43-.52,0-1.17A6.61,6.61,0,0,1,769.35,465.36Z"/><path class="cls-10" d="M762.46,463.34a4.3,4.3,0,0,1-.36,1.87,1.67,1.67,0,0,1-.78.74.64.64,0,0,1-.41.05c-.3-.09-.44-.49-.06-1.15A6.76,6.76,0,0,1,762.46,463.34Z"/><path class="cls-10" d="M770.32,460.41a4.06,4.06,0,0,1-.35,1.85,1.67,1.67,0,0,1-.78.75.63.63,0,0,1-.4,0c-.3-.09-.44-.51-.06-1.17A6.61,6.61,0,0,1,770.32,460.41Z"/><path class="cls-10" d="M766.87,459.41a4.28,4.28,0,0,1-.35,1.87,1.74,1.74,0,0,1-.78.74.67.67,0,0,1-.41.05c-.29-.09-.43-.52,0-1.17A6.62,6.62,0,0,1,766.87,459.41Z"/><g class="cls-9"><polygon class="cls-10" points="818.97 470.31 818.65 472.76 798.92 480.91 799.24 478.45 818.97 470.31"/><polygon class="cls-10" points="818.28 438.7 820.33 445.84 818.2 446.72 815.24 469.52 812.94 470.47 815.9 447.67 813.76 448.55 818.28 438.7"/><path class="cls-10" d="M790.84,443.34,838,423.88l-6.53,50.31-47.12,19.46ZM830,473.1,836,426.38l-43.76,18.07-6.06,46.72L830,473.1Z"/><polygon class="cls-10" points="808.94 442.56 811 449.69 808.87 450.57 805.91 473.38 803.6 474.33 806.57 451.53 804.43 452.41 808.94 442.56"/></g><path class="cls-11" d="M654.71,468.61a1.34,1.34,0,0,1-.64-.27L482.71,336.91a1.35,1.35,0,0,1,1.64-2.13L655.71,466.21a1.35,1.35,0,0,1-1,2.4Z"/><polygon class="cls-12" points="750.14 297.85 545.45 383.06 545.47 383.13 545.34 383.04 516.3 597.24 546.44 620.43 575.49 406.22 780.18 321 750.14 297.85"/><path class="cls-13" d="M626.59,680.53a1.35,1.35,0,0,1-1.16-1.51L653.56,467.1a1.34,1.34,0,0,1,.82-1.06l204.69-85.21a1.34,1.34,0,1,1,1,2.48l-204,84.92-28,211.15A1.35,1.35,0,0,1,626.59,680.53Z"/><polygon class="cls-12" points="786.63 412.74 786.48 412.8 786.52 412.74 614.85 279.94 579.86 294.5 751.48 427.25 723.76 640.8 758.93 626.09 786.63 412.74"/><polygon class="cls-14" points="957 924.91 798.92 939.08 424.64 890 44.72 143.13 739.21 63.28 890.95 81.28 957 924.91"/><rect class="cls-1" x="38.12" y="69.59" width="849.53" height="849.53" transform="translate(-36.6 37.01) rotate(-4.4)"/><rect class="cls-2" x="113.6" y="150.78" width="695.82" height="651.37" transform="translate(-35.23 36.85) rotate(-4.4)"/><polygon class="cls-3" points="833.41 774.47 550.28 796.28 820.18 602.78 833.41 774.47"/><polygon class="cls-4" points="107.31 428 89.61 178.46 783.38 125.02 800.21 343.46 452.7 179.62 107.31 428"/><polygon class="cls-5" points="484.47 689.84 347.95 700.35 169.63 606.9 295.42 518.89 484.47 689.84"/><polygon class="cls-6" points="468.9 475.97 651.48 350.17 667.47 565.76 484.89 691.55 468.9 475.97"/><polygon class="cls-7" points="272.99 382.23 455.57 256.43 651.48 350.28 468.91 476.08 272.99 382.23"/><polygon class="cls-8" points="468.9 475.97 484.89 691.55 288.98 597.71 272.98 382.12 468.9 475.97"/><g class="cls-9"><path class="cls-10" d="M500.86,490.15l42.07-28.81,4,50.57L504.9,540.72Zm44.46,21-3.75-47-39.06,26.75,3.75,47,39.06-26.75Z"/><path class="cls-10" d="M526.5,516.12c2.24-1.53,4.12-1.91,4.21-.83l0,.37L520,523l0-.37c-.09-1.08,1.66-3.18,3.9-4.72l.76-.52.13,1.65,1.09-.75-.13-1.65Z"/><polygon class="cls-10" points="524.37 499.51 524.59 502.14 525.74 516.64 525.87 518.3 524.78 519.04 524.65 517.39 523.49 502.89 523.28 500.26 524.37 499.51"/><path class="cls-10" d="M527.82,479.08,529,494a9.34,9.34,0,0,1-3.66,7.65l-.76.52-.21-2.63-1.09.75.21,2.63-.76.52c-2.24,1.54-4.22.6-4.44-2.09l-1.19-14.89Z"/></g><path class="cls-10" d="M571,457.23l.16,2c4.74-3,8.83-2,9.71,2.21l-9,6.19L573.08,483a7.46,7.46,0,0,1-2.93,6.1c-1.79,1.22-3.38.49-3.55-1.66l0-.5,1.35-.92,0,.5c.1,1.25,1,1.68,2.08,1a4.35,4.35,0,0,0,1.71-3.56l-1.23-15.42-8.92,6.11c.15-4.85,3.61-11,8.25-14.51l-.16-2Z"/><path class="cls-10" d="M548.64,457.43l42.06-28.8,4,50.57L552.68,508Zm44.45,21-3.75-47-39.06,26.75,3.75,47,39.06-26.75Z"/><path class="cls-10" d="M576.89,450.09a4.32,4.32,0,0,1,0,1.9,1.71,1.71,0,0,1-.6.89.66.66,0,0,1-.39.13c-.3,0-.53-.42-.3-1.13A6.67,6.67,0,0,1,576.89,450.09Z"/><path class="cls-10" d="M580.47,450.36a4.22,4.22,0,0,1,0,1.88,1.74,1.74,0,0,1-.62.91.64.64,0,0,1-.38.13c-.3,0-.53-.42-.29-1.14A6.61,6.61,0,0,1,580.47,450.36Z"/><path class="cls-10" d="M573.31,449.82a4.3,4.3,0,0,1,0,1.9,1.67,1.67,0,0,1-.6.89.64.64,0,0,1-.39.14c-.31,0-.54-.39-.3-1.11A6.76,6.76,0,0,1,573.31,449.82Z"/><path class="cls-10" d="M580.39,445.33a4.06,4.06,0,0,1,0,1.88,1.67,1.67,0,0,1-.61.9.63.63,0,0,1-.38.13c-.31,0-.54-.41-.3-1.13A6.61,6.61,0,0,1,580.39,445.33Z"/><path class="cls-10" d="M576.81,445.05a4.28,4.28,0,0,1,0,1.9,1.74,1.74,0,0,1-.61.89.67.67,0,0,1-.39.14c-.3,0-.53-.42-.29-1.14A6.62,6.62,0,0,1,576.81,445.05Z"/><g class="cls-9"><polygon class="cls-10" points="630.04 444.92 630.23 447.39 612.62 459.44 612.42 456.98 630.04 444.92"/><polygon class="cls-10" points="622.81 414.14 626.3 420.7 624.39 422 626.23 444.92 624.17 446.33 622.34 423.41 620.43 424.71 622.81 414.14"/><path class="cls-10" d="M596.93,424.37,639,395.56l4,50.57L601,474.93Zm44.45,21-3.75-47-39.06,26.75,3.75,47,39.06-26.75Z"/><polygon class="cls-10" points="614.48 419.85 617.97 426.4 616.06 427.71 617.89 450.63 615.84 452.04 614.01 429.12 612.1 430.42 614.48 419.85"/></g><polygon class="cls-12" points="526.95 290.48 344.37 416.27 344.41 416.34 344.26 416.27 360.26 631.84 394.55 648.27 378.56 432.7 561.14 306.9 526.95 290.48"/><path class="cls-13" d="M485.42,690.45a1.35,1.35,0,0,1-1.44-1.24L467.56,476.07a1.34,1.34,0,0,1,.58-1.21l182.58-125.8a1.34,1.34,0,1,1,1.53,2.22L470.3,476.64,486.66,689A1.35,1.35,0,0,1,485.42,690.45Z"/><polygon class="cls-12" points="586.47 395.3 586.33 395.39 586.36 395.32 390.88 301 359.68 322.5 555.09 416.79 572.24 631.44 603.6 609.76 586.47 395.3"/></svg>