<svg xmlns="http://www.w3.org/2000/svg" viewBox="0 0 300 209"><defs><style>.cls-1{isolation:isolate;}.cls-2{fill:#070707;opacity:0.1;}.cls-2,.cls-23,.cls-24,.cls-25,.cls-26,.cls-27,.cls-28,.cls-29{fill-rule:evenodd;}.cls-3{fill:#c9905c;}.cls-4{fill:#a5714e;}.cls-5{fill:#eabd8d;}.cls-6{fill:#532100;opacity:0.2;}.cls-14,.cls-6{mix-blend-mode:multiply;}.cls-7{fill:#935a49;}.cls-8{fill:#ffcd9c;}.cls-9{fill:#c4925c;}.cls-10{fill:#f4ca9e;}.cls-11{fill:#475769;}.cls-12{fill:#f05c4c;}.cls-13{fill:#9ca8b5;}.cls-14{fill:#d7d7d7;}.cls-15{fill:#818b94;}.cls-16{fill:#5b6975;}.cls-17{fill:#a89b7a;}.cls-18{fill:#333;}.cls-19,.cls-29{fill:#5dd4f9;}.cls-20{fill:#06c3ef;}.cls-21{fill:none;stroke:#fff;stroke-miterlimit:10;stroke-width:0.16px;}.cls-22{fill:#fff;}.cls-23{fill:#a39688;}.cls-24{fill:#f8efd1;}.cls-25{fill:#4c4b4a;}.cls-26{fill:#857d72;}.cls-27{fill:#eb684f;}.cls-28{fill:#70c5ad;}.cls-30{fill:#02c488;}</style></defs><title>step3b</title><g class="cls-1"><g id="Layer_1" data-name="Layer 1"><polygon class="cls-2" points="146.87 206.24 77.83 164.59 147.97 125.41 219.58 164.59 146.87 206.24"/><polygon class="cls-2" points="232.98 138.08 170.5 100.39 233.97 64.94 298.78 100.39 232.98 138.08"/><polygon class="cls-2" points="63.98 138.08 1.5 100.39 64.97 64.94 129.78 100.39 63.98 138.08"/><polygon class="cls-3" points="64.72 82.38 103.83 59.65 103.7 103.75 64.59 126.48 64.72 82.38"/><polygon class="cls-4" points="64.72 82.38 64.59 126.48 26.21 104.32 26.33 60.22 64.72 82.38"/><polygon class="cls-5" points="103.84 59.69 119.79 61.26 81.41 39.1 65.45 37.53 103.84 59.69"/><polygon class="cls-3" points="26.33 60.24 65.57 82.82 65.45 37.51 26.33 60.24"/><polygon class="cls-6" points="65.44 38.15 50.89 83.48 65.44 82.33 65.44 38.15"/><polygon class="cls-7" points="103.83 59.67 65.44 37.51 65.44 82.33 64.72 82.4 103.83 59.67"/><path class="cls-8" d="M119.56,61.55h0l-15.74-1.6a.27.27,0,1,1,.06-.55L119.59,61a.27.27,0,0,1,0,.55Z"/><polygon class="cls-5" points="80.68 100.8 119.79 78.07 103.7 59.55 64.59 82.28 80.68 100.8"/><polygon class="cls-5" points="49.87 100.66 64.74 82.41 26.36 60.25 11.48 78.5 49.87 100.66"/><path class="cls-9" d="M80.68,101.07a.27.27,0,0,1-.21-.09l-.24-.28a.27.27,0,0,1,.41-.36l.09.1,38.91-22.61a.27.27,0,1,1,.28.47L80.81,101A.27.27,0,0,1,80.68,101.07Z"/><path class="cls-4" d="M80.44,100.79a.27.27,0,0,1-.21-.09L64.51,82.58a.27.27,0,1,1,.41-.36l15.72,18.12a.27.27,0,0,1-.21.45Z"/><path class="cls-9" d="M49.87,100.94a.27.27,0,0,1-.14,0L11.35,78.74a.27.27,0,1,1,.27-.48l38.18,22L64.5,82.23a.27.27,0,1,1,.43.35L50.08,100.84A.27.27,0,0,1,49.87,100.94Z"/><path class="cls-10" d="M64.71,82.68a.27.27,0,0,1-.14,0L26.22,60.48a.27.27,0,0,1,0-.47l39-22.67a.27.27,0,1,1,.28.47L26.9,60.24,64.85,82.16a.27.27,0,0,1-.14.51Z"/><path class="cls-3" d="M64.71,82.68a.27.27,0,0,1-.14-.51l38.58-22.62L65.56,37.92a.27.27,0,0,1,.27-.48l38,21.86a.27.27,0,0,1,0,.47l-39,22.86A.27.27,0,0,1,64.71,82.68Z"/><polygon class="cls-5" points="26.6 59.54 10.65 61.12 49.03 38.96 64.98 37.38 26.6 59.54"/><path class="cls-8" d="M10.87,61.41h0l15.74-1.6a.27.27,0,1,0-.06-.55l-15.74,1.6a.27.27,0,0,0,0,.55Z"/><polygon class="cls-3" points="233 82.38 272.11 59.65 271.98 103.75 232.87 126.48 233 82.38"/><polygon class="cls-4" points="233 82.38 232.87 126.48 194.49 104.32 194.61 60.22 233 82.38"/><polygon class="cls-5" points="272.12 59.69 288.07 61.26 249.69 39.1 233.74 37.53 272.12 59.69"/><polygon class="cls-3" points="194.61 60.24 233.85 82.82 233.74 37.51 194.61 60.24"/><polygon class="cls-6" points="233.72 38.15 219.18 83.48 233.72 82.33 233.72 38.15"/><polygon class="cls-7" points="272.11 59.67 233.72 37.51 233.72 82.33 233 82.4 272.11 59.67"/><path class="cls-8" d="M287.85,61.55h0l-15.74-1.6a.27.27,0,1,1,.06-.55L287.87,61a.27.27,0,0,1,0,.55Z"/><polygon class="cls-5" points="248.96 100.8 288.07 78.07 271.98 59.55 232.87 82.28 248.96 100.8"/><polygon class="cls-5" points="218.15 100.66 233.02 82.41 194.64 60.25 179.77 78.5 218.15 100.66"/><path class="cls-9" d="M249,101.07a.27.27,0,0,1-.21-.09l-.24-.28a.27.27,0,0,1,.41-.36l.09.1,38.91-22.61a.27.27,0,1,1,.28.47L249.1,101A.27.27,0,0,1,249,101.07Z"/><path class="cls-4" d="M248.72,100.79a.27.27,0,0,1-.21-.09L232.79,82.58a.27.27,0,1,1,.41-.36l15.72,18.12a.27.27,0,0,1-.21.45Z"/><path class="cls-9" d="M218.15,100.94a.27.27,0,0,1-.14,0L179.63,78.74a.27.27,0,1,1,.27-.48l38.18,22,14.7-18.08a.27.27,0,1,1,.43.35l-14.85,18.26A.27.27,0,0,1,218.15,100.94Z"/><path class="cls-10" d="M233,82.68a.27.27,0,0,1-.14,0L194.5,60.48a.27.27,0,0,1,0-.47l39-22.67a.27.27,0,1,1,.28.47l-38.6,22.43,37.95,21.92a.27.27,0,0,1-.14.51Z"/><path class="cls-3" d="M233,82.68a.27.27,0,0,1-.14-.51l38.58-22.62L233.84,37.92a.27.27,0,0,1,.27-.48l38,21.86a.27.27,0,0,1,0,.47l-39,22.86A.27.27,0,0,1,233,82.68Z"/><polygon class="cls-5" points="194.88 59.54 178.93 61.12 217.31 38.96 233.26 37.38 194.88 59.54"/><path class="cls-8" d="M179.15,61.41h0l15.74-1.6a.27.27,0,1,0-.06-.55l-15.74,1.6a.27.27,0,0,0,0,.55Z"/><polygon class="cls-5" points="200.46 104.71 221.76 106.82 170.49 77.22 149.19 75.11 200.46 104.71"/><polygon class="cls-3" points="96.93 105.45 149.34 135.61 149.19 75.09 96.93 105.45"/><polygon class="cls-6" points="149.17 75.94 129.74 136.5 149.17 134.96 149.17 75.94"/><polygon class="cls-7" points="200.44 104.69 149.17 75.09 149.17 134.96 148.2 135.05 200.44 104.69"/><path class="cls-8" d="M221.46,107.2h0l-21-2.14a.37.37,0,1,1,.07-.73l21,2.14a.37.37,0,0,1,0,.73Z"/><path class="cls-10" d="M148.2,135.42a.37.37,0,0,1-.18,0L96.78,105.78a.37.37,0,0,1,0-.63l52.1-30.28a.37.37,0,1,1,.37.63l-51.56,30,50.69,29.28a.37.37,0,0,1-.18.68Z"/><path class="cls-3" d="M148.2,135.42a.37.37,0,0,1-.19-.68l51.53-30.21L149.33,75.64a.37.37,0,0,1,.37-.64l50.76,29.2a.37.37,0,0,1,0,.63l-52.07,30.53A.36.36,0,0,1,148.2,135.42Z"/><polygon class="cls-5" points="97.29 104.52 75.98 106.63 127.25 77.03 148.56 74.92 97.29 104.52"/><rect class="cls-11" x="147.7" y="134.48" width="3.27" height="35.8" transform="translate(-3.3 301.45) rotate(-89.9)"/><path class="cls-12" d="M166.95,119.95a29.68,29.68,0,0,0,.09-6.1l4.57-17.32s-15-10.1-22.52-10.1-22.52,10.1-22.52,10.1l4.57,17.32a29.67,29.67,0,0,0,.09,6.1c-.58,2-1.28,7.06-.16,10.2-2.14,5.64-1.32,21.18-1.32,21.18H168s1.27-15.54-.87-21.18C168.23,127,167.52,122,166.95,119.95Z"/><rect class="cls-11" x="117.26" y="144.32" width="3.27" height="8.44" transform="matrix(0.13, -0.99, 0.99, 0.13, -44.04, 246.78)"/><rect class="cls-11" x="174.99" y="146.91" width="8.44" height="3.27" transform="translate(-18.04 24.96) rotate(-7.59)"/><polygon class="cls-13" points="147.69 109.96 149.06 111.58 150.47 109.96 150.47 154.12 147.69 154.12 147.69 109.96"/><path class="cls-12" d="M126.53,96.5c-2.28,2-7.07,11-6.56,17.76-2.58,1.9-3.28,8-2.31,10.9-1.69.93-2.93,8.13-2,11-2.19,3.18-1.62,10.38-1.62,10.38L124,148a17,17,0,0,0,2.3-10.6c1.19-1.62,2.85-8.12,2.23-10.28,1.21-2,2.57-7.6,2-9.25a11.42,11.42,0,0,0,.82-3.78S133,104.3,126.53,96.5Z"/><path class="cls-14" d="M115.88,136.63c1.74,1.29,7.1,2.62,9.9,1.2C124,140.92,117.94,140.31,115.88,136.63Z"/><path class="cls-15" d="M140.27,104.65H132.5v9.51a2.2,2.2,0,0,0,2.19,2.19H141a2.2,2.2,0,0,0,2.19-2.19v-9.51Z"/><polygon class="cls-13" points="138.37 104.02 132.12 104.02 132.12 105.29 138.37 105.29 143.52 105.29 143.52 104.02 138.37 104.02"/><polygon class="cls-14" points="138.37 104.94 132.12 104.94 132.12 105.29 138.37 105.29 143.52 105.29 143.52 104.94 138.37 104.94"/><polygon class="cls-14" points="132.48 107.44 132.48 108.68 137.82 112.85 143.16 108.68 143.16 107.42 138.04 105.54 132.48 107.44"/><polygon class="cls-13" points="138.37 105.29 132.12 105.29 132.12 107.18 137.82 111.13 143.52 107.18 143.52 105.29 138.37 105.29"/><path class="cls-15" d="M157.89,104.65h7.77v9.51a2.2,2.2,0,0,1-2.19,2.19h-6.26a2.2,2.2,0,0,1-2.19-2.19v-9.51Z"/><polygon class="cls-13" points="159.79 104.02 166.04 104.02 166.04 105.29 159.79 105.29 154.64 105.29 154.64 104.02 159.79 104.02"/><polygon class="cls-14" points="159.79 104.94 166.04 104.94 166.04 105.29 159.79 105.29 154.64 105.29 154.64 104.94 159.79 104.94"/><polygon class="cls-14" points="165.68 107.44 165.68 108.68 160.34 112.85 155 108.68 155 107.42 160.12 105.54 165.68 107.44"/><polygon class="cls-13" points="159.79 105.29 166.04 105.29 166.04 107.18 160.34 111.13 154.64 107.18 154.64 105.29 159.79 105.29"/><path class="cls-14" d="M118,125.43c1.72,1.39,7.18,3,10.14,1.75C126.07,130.16,119.89,129.21,118,125.43Z"/><path class="cls-11" d="M134.71,91.62l14.35,19.94,14.29-20c-4.72-2.56-10.44-5.14-14.26-5.14S139.45,89,134.71,91.62Z"/><path class="cls-14" d="M127.85,97.21l19.51,13L136.13,90.86c-3.08,1.6-5.31,2.94-7.08,4.05Z"/><path class="cls-14" d="M120.27,114.47c1.45,1.67,6.79,4.18,9.92,3.45C127.44,120.24,121.5,118.53,120.27,114.47Z"/><path class="cls-13" d="M149.05,81a19,19,0,0,0-11.26,4.25C130.6,90.67,129.94,96,129.94,96l19.11,15.53L139.5,92.05A16.83,16.83,0,0,1,149.05,81Z"/><path class="cls-15" d="M129,140.12v8.22h3.46a1.46,1.46,0,0,0,1.46-1.46v-6.76Z"/><path class="cls-13" d="M128.48,134.74v5.65h5.42a1.46,1.46,0,0,0,1.46-1.46v-4.19Z"/><path class="cls-14" d="M131.52,120.4c2.08,1.26,8.17,2.28,12.61,1.45C140.49,123.28,135.11,123.67,131.52,120.4Z"/><path class="cls-14" d="M131.54,130.19c2,1.33,8.1,2.54,12.55,1.85C140.25,133.28,134.52,133.28,131.54,130.19Z"/><path class="cls-12" d="M154.23,70.11a20,20,0,0,0-5.3-1.09,20,20,0,0,0-5.3,1.09L131.35,84.92h35.16Z"/><path class="cls-12" d="M171.63,96.5c2.28,2,7.07,11,6.56,17.76,2.58,1.9,3.28,8,2.31,10.9,1.69.93,2.93,8.13,2,11,2.19,3.18,1.62,10.38,1.62,10.38L174.15,148a17,17,0,0,1-2.3-10.6c-1.19-1.62-2.85-8.12-2.23-10.28-1.21-2-2.57-7.6-2-9.25a11.42,11.42,0,0,1-.82-3.78S165.17,104.3,171.63,96.5Z"/><path class="cls-14" d="M182.28,136.63c-1.74,1.29-7.1,2.62-9.9,1.2C174.19,140.92,180.22,140.31,182.28,136.63Z"/><path class="cls-14" d="M180.19,125.43c-1.72,1.39-7.18,3-10.14,1.75C172.09,130.16,178.27,129.21,180.19,125.43Z"/><path class="cls-14" d="M170.31,97.21l-19.51,13L162,90.86c3.08,1.6,5.31,2.94,7.08,4.05Z"/><path class="cls-14" d="M177.89,114.47c-1.45,1.67-6.79,4.18-9.92,3.45C170.73,120.24,176.66,118.53,177.89,114.47Z"/><path class="cls-13" d="M149.11,81a19,19,0,0,1,11.26,4.25c7.19,5.39,7.85,10.75,7.85,10.75l-19.17,15.53,9.61-19.51A16.83,16.83,0,0,0,149.11,81Z"/><path class="cls-15" d="M168.92,140.12v8.22h-3.46a1.46,1.46,0,0,1-1.46-1.46v-6.76Z"/><path class="cls-13" d="M169.4,134.74v5.65H164a1.46,1.46,0,0,1-1.46-1.46v-4.19Z"/><path class="cls-14" d="M166.65,120.4c-2.08,1.26-8.17,2.28-12.61,1.45C157.52,123.65,163.17,123.79,166.65,120.4Z"/><path class="cls-14" d="M166.62,130.19c-2,1.33-8.1,2.54-12.55,1.85C157.91,133.47,163.17,133.28,166.62,130.19Z"/><rect class="cls-16" x="145.18" y="87.06" width="7.65" height="6.17"/><path class="cls-14" d="M167.62,94a21.22,21.22,0,0,0-7.25-8.73c-4.71-3.54-17.87-3.54-22.58,0A21.22,21.22,0,0,0,130.55,94l-1,.58a5.92,5.92,0,0,0,5-.64,27.53,27.53,0,0,1,28.87,0,5.89,5.89,0,0,0,5.08.6Z"/><path class="cls-17" d="M170.27,91.49c-1.54,2.09-4.55,2.21-6.9.8a27.53,27.53,0,0,0-28.87,0c-2.35,1.4-5.36,1.29-6.9-.8s-.43-5.94,2.74-7.86a35.46,35.46,0,0,1,37.18,0C170.7,85.55,171.81,89.42,170.27,91.49Z"/><rect class="cls-14" x="128.97" y="140.39" width="4.94" height="1.03"/><rect class="cls-14" x="163.99" y="140.39" width="4.94" height="1.03"/><path class="cls-8" d="M76.28,107h0l21-2.14a.37.37,0,1,0-.07-.73l-21,2.14a.37.37,0,0,0,0,.73Z"/><polygon class="cls-3" points="148.2 135.03 200.44 104.67 200.28 163.58 148.03 193.94 148.2 135.03"/><rect class="cls-18" x="114.1" y="93.65" width="32.19" height="45.41" rx="1.8" ry="1.8" transform="translate(-6.14 7.25) rotate(-3.12)"/><rect class="cls-19" x="116.27" y="97.69" width="27.84" height="37.29" transform="translate(-6.13 7.25) rotate(-3.12)"/><polygon class="cls-20" points="145.11 134.2 123.87 135.36 143.27 100.54 145.11 134.2"/><circle class="cls-21" cx="129.07" cy="95.78" r="0.28" transform="translate(-5.02 7.16) rotate(-3.12)"/><circle class="cls-22" cx="131.32" cy="137.15" r="1.08" transform="translate(-7.26 7.35) rotate(-3.12)"/><polygon class="cls-23" points="164.72 127.8 165.72 127.82 166.18 109.54 165.18 109.51 164.72 127.8 164.72 127.8 164.72 127.8"/><polygon class="cls-24" points="165.31 127.81 165.49 127.82 165.95 109.53 165.77 109.53 165.31 127.81 165.31 127.81 165.31 127.81"/><polygon class="cls-23" points="163.03 135.29 164.2 135.57 165.93 135.62 167.02 135.4 165.94 135.14 165.94 135.1 167.03 134.9 165.95 134.64 165.95 134.6 167.04 134.4 165.97 134.14 165.97 134.1 167.06 133.9 165.98 133.64 165.98 133.6 167.07 133.4 165.99 133.14 165.99 133.1 167.08 132.9 166 132.65 166.01 132.6 167.1 132.41 166.02 132.15 166.02 132.11 167.11 131.91 166.03 131.65 166.03 131.61 167.12 131.41 166.04 131.15 166.04 131.11 167.13 130.91 166.06 130.65 166.06 130.61 167.15 130.41 166.07 130.15 166.07 130.11 167.16 129.91 166.08 129.65 166.08 129.61 167.17 129.41 166.1 129.15 166.1 129.11 167.19 128.91 166.11 128.65 166.11 128.61 167.2 128.41 166.12 128.15 166.12 128.11 167.21 127.91 166.13 127.66 166.14 127.61 167.23 127.41 166.15 127.16 166.15 127.11 167.24 126.91 166.16 126.65 166.16 126.61 167.25 126.42 166.17 126.14 164.45 126.09 163.26 126.31 164.43 126.59 164.43 126.59 163.25 126.81 164.42 127.09 164.42 127.09 163.24 127.31 164.41 127.59 164.41 127.59 163.22 127.81 164.4 128.09 164.4 128.09 163.21 128.31 164.38 128.59 164.38 128.59 163.2 128.81 164.37 129.09 164.37 129.09 163.19 129.31 164.36 129.59 164.35 129.59 163.17 129.81 164.34 130.08 164.34 130.08 163.16 130.3 164.33 130.58 164.33 130.58 163.15 130.8 164.32 131.08 164.32 131.08 163.13 131.3 164.3 131.58 164.3 131.58 163.12 131.8 164.29 132.08 164.29 132.08 163.11 132.3 164.28 132.58 164.28 132.58 163.09 132.8 164.26 133.08 164.26 133.08 163.08 133.3 164.25 133.58 164.25 133.58 163.07 133.8 164.24 134.08 164.24 134.08 163.06 134.3 164.23 134.58 164.23 134.58 163.04 134.8 164.21 135.07 164.21 135.08 163.03 135.29 163.03 135.29 163.03 135.29"/><polygon class="cls-25" points="163.54 111.94 167.69 112.05 168.05 97.77 163.9 97.67 163.54 111.94 163.54 111.94 163.54 111.94"/><polygon class="cls-24" points="163.57 110.55 167.73 110.65 167.75 109.95 163.59 109.85 163.57 110.55 163.57 110.55 163.57 110.55"/><polygon class="cls-24" points="163.84 99.76 168 99.87 168.02 99.17 163.86 99.06 163.84 99.76 163.84 99.76 163.84 99.76"/><path class="cls-23" d="M169.52,134.34l.89-35.15a1.29,1.29,0,0,1,1.22-1.33l11.47.29a1.29,1.29,0,0,1,1.16,1.39l-.89,35.15a1.29,1.29,0,0,1-1.22,1.33l-11.47-.29a1.29,1.29,0,0,1-1.16-1.39Z"/><path class="cls-23" d="M175.09,135.52,176,98.36l5.66.14a.94.94,0,0,1,.81,1l-.89,35.15a.94.94,0,0,1-.86,1Z"/><path class="cls-25" d="M168.47,134.35l.89-35.15a1,1,0,0,1,.86-1l5.81.15-.94,37.16-5.82-.15A.94.94,0,0,1,168.47,134.35Z"/><path class="cls-23" d="M172.07,129.14h0a4.52,4.52,0,1,0,4.63-4.4,4.52,4.52,0,0,0-4.63,4.4Zm.62-24.63h0a4.52,4.52,0,1,0,4.63-4.4,4.52,4.52,0,0,0-4.63,4.4Zm-.31,12.32h0a4.52,4.52,0,1,0,4.63-4.4,4.52,4.52,0,0,0-4.63,4.4Z"/><path class="cls-26" d="M172.68,116.84a4.21,4.21,0,1,0,4.32-4.1,4.21,4.21,0,0,0-4.32,4.1Z"/><path class="cls-26" d="M173,104.52a4.21,4.21,0,1,0,4.32-4.1,4.21,4.21,0,0,0-4.32,4.1Z"/><path class="cls-26" d="M172.37,129.15a4.21,4.21,0,1,0,4.32-4.1,4.21,4.21,0,0,0-4.32,4.1Z"/><path class="cls-27" d="M173.67,129.18a2.91,2.91,0,1,0,3-2.84,2.91,2.91,0,0,0-3,2.84Z"/><path class="cls-28" d="M174,116.87a2.91,2.91,0,1,0,3-2.84,2.91,2.91,0,0,0-3,2.84Z"/><path class="cls-29" d="M174.29,104.55a2.91,2.91,0,1,0,3-2.84,2.91,2.91,0,0,0-3,2.84Z"/><path class="cls-23" d="M191.08,98.35l-3.51-.09a.9.9,0,0,0-.92.87l-.91,36.09a.9.9,0,0,0,.87.92l3.51.09a.9.9,0,0,0,.92-.87L192,99.27a.9.9,0,0,0-.87-.92Z"/><path class="cls-24" d="M186.29,113.82l5.29.13L192,99.27a.9.9,0,0,0-.87-.92l-3.51-.09a.9.9,0,0,0-.92.87l-.37,14.68Z"/><path class="cls-25" d="M186.3,113.29l5.29.13L192,99.27a.9.9,0,0,0-.87-.92l-3.51-.09a.9.9,0,0,0-.92.87l-.36,14.16Z"/><polygon class="cls-4" points="148.2 135.03 148.03 193.94 96.77 164.34 96.93 105.42 148.2 135.03"/><polygon class="cls-5" points="169.52 159.62 221.76 129.26 200.28 104.53 148.03 134.88 169.52 159.62"/><polygon class="cls-5" points="128.37 159.45 148.23 135.06 96.97 105.46 77.1 129.85 128.37 159.45"/><path class="cls-9" d="M169.52,160a.37.37,0,0,1-.28-.13l-.32-.37a.37.37,0,0,1,.55-.48l.12.14,52-30.21a.37.37,0,1,1,.37.63l-52.24,30.36A.36.36,0,0,1,169.52,160Z"/><path class="cls-4" d="M169.2,159.62a.37.37,0,0,1-.28-.13l-21-24.2a.37.37,0,1,1,.55-.48l21,24.2a.37.37,0,0,1-.28.61Z"/><path class="cls-9" d="M128.37,159.81a.37.37,0,0,1-.18,0l-51.27-29.6a.37.37,0,1,1,.37-.63l51,29.44,19.64-24.15a.37.37,0,1,1,.57.46l-19.83,24.39A.37.37,0,0,1,128.37,159.81Z"/><path class="cls-30" d="M55.5,76.59C49.08,37,63.26,19.33,72.72,12.21,85.22,2.8,102.52,1.68,116.8,9.36c14,7.51,21.71,21.55,20.72,37.55l-12.69-.78c.69-11.08-4.44-20.4-14.05-25.57-9.93-5.34-21.87-4.63-30.42,1.81C72.86,28,61.58,42.93,69,79.76l-4,2.33Z"/><polygon class="cls-30" points="145.65 44.4 116.75 44.4 131.2 62.77 145.65 44.4"/><path class="cls-30" d="M242.46,76.59c6.41-39.64-7.76-57.26-17.22-64.38-12.5-9.41-29.81-10.53-44.09-2.85-14,7.51-21.71,21.55-20.72,37.55l12.69-.78c-.69-11.08,4.44-20.4,14.05-25.57,9.93-5.34,21.87-4.63,30.42,1.81C225.1,28,236.38,42.93,229,79.76l4,2.33Z"/><polygon class="cls-30" points="152.31 44.4 181.21 44.4 166.76 62.77 152.31 44.4"/></g></g></svg>