<?xml version="1.0" encoding="utf-8"?>
<svg width="22" height="16" version="1.1" id="Layer_1" xmlns:sketch="http://www.bohemiancoding.com/sketch/ns"
	 xmlns="http://www.w3.org/2000/svg" xmlns:xlink="http://www.w3.org/1999/xlink" x="0px" y="0px" viewBox="0 0 22 16"
	 enable-background="new 0 0 22 16" xml:space="preserve">
<path id="Membership_green_check_mark" sketch:type="MSShapeGroup" fill="#82BC00" d="M21,0.7c-0.9-0.9-2.4-0.9-3.3,0L8.4,9.9L4,5.5
	c-0.9-0.9-2.4-0.9-3.3,0c-0.9,0.9-0.9,2.4,0,3.3l6.1,6.1c0,0,0,0,0,0c0.5,0.5,1.1,0.7,1.7,0.7c0.6,0,1.2-0.2,1.7-0.7c0,0,0,0,0,0
	L21,4C21.9,3.1,21.9,1.6,21,0.7"/>
</svg>
